<svg width="28" height="25" viewBox="0 0 28 25" fill="none" xmlns="http://www.w3.org/2000/svg">
<path fill-rule="evenodd" clip-rule="evenodd" d="M9 5C9 2.23858 11.2386 0 14 0C16.7614 0 19 2.23858 19 5C19 7.76142 16.7614 10 14 10C11.2386 10 9 7.76142 9 5Z" fill="white"/>
<path fill-rule="evenodd" clip-rule="evenodd" d="M19 9C19 6.79086 20.7909 5 23 5C25.2091 5 27 6.79086 27 9C27 11.2091 25.2091 13 23 13C20.7909 13 19 11.2091 19 9Z" fill="white"/>
<path fill-rule="evenodd" clip-rule="evenodd" d="M1 9C1 6.79086 2.79086 5 5 5C7.20914 5 9 6.79086 9 9C9 11.2091 7.20914 13 5 13C2.79086 13 1 11.2091 1 9Z" fill="white"/>
<path fill-rule="evenodd" clip-rule="evenodd" d="M6.41315 16.1567C8.01044 13.6592 10.8111 12 14 12C17.1893 12 19.9903 13.6596 21.5875 16.1576C22.6917 17.8846 23.1694 19.9669 22.9453 21.9972C22.9103 22.3145 22.7259 22.596 22.449 22.7549C19.9592 24.1835 17.0734 25 14 25C10.9266 25 8.04078 24.1835 5.55099 22.7549C5.27412 22.596 5.08973 22.3145 5.05471 21.9972C4.83058 19.9665 5.30855 17.8838 6.41315 16.1567Z" fill="white"/>
<path d="M4.77638 15.0049C4.76032 15.0296 4.74436 15.0543 4.7285 15.0791C3.44122 17.0919 2.85211 19.4889 3.03295 21.852C2.22222 21.7289 1.4356 21.5308 0.680571 21.2649L0.527293 21.2109C0.247678 21.1124 0.0523032 20.8585 0.028788 20.563L0.0158975 20.401C0.00535619 20.2685 0 20.1348 0 20C0 17.3135 2.11873 15.1219 4.77638 15.0049Z" fill="white"/>
<path d="M24.9675 21.8519C25.1483 19.4893 24.5595 17.0928 23.2727 15.0802C23.2566 15.0551 23.2404 15.03 23.2241 15.0049C25.8815 15.1222 28 17.3137 28 20C28 20.1348 27.9946 20.2685 27.9841 20.401L27.9712 20.563C27.9477 20.8585 27.7523 21.1124 27.4727 21.2109L27.3194 21.2649C26.5645 21.5307 25.7781 21.7288 24.9675 21.8519Z" fill="white"/>
</svg>
