<svg width="30" height="26" viewBox="0 0 30 26" fill="none" xmlns="http://www.w3.org/2000/svg">
<path d="M14.5992 0.739897C14.8545 0.628368 15.1447 0.628368 15.4 0.739897C20.3584 2.90633 25.0578 5.55467 29.4389 8.62559C29.7559 8.84782 29.9162 9.23311 29.8503 9.61465C29.7844 9.99618 29.5042 10.3054 29.131 10.4084C28.2177 10.6605 27.3124 10.932 26.4153 11.2213C22.7738 12.3957 19.2685 13.8733 15.929 15.6246L15.9247 15.6268C15.7733 15.7062 15.6222 15.7862 15.4715 15.8668C15.177 16.0241 14.8234 16.0241 14.529 15.8668C14.3768 15.7855 14.2243 15.7047 14.0714 15.6246C12.4201 14.7586 10.7283 13.9596 8.99951 13.231V12.9328C8.99951 12.7576 9.0894 12.6022 9.22849 12.518C11.2353 11.3022 13.3054 10.1804 15.4325 9.15866C15.9303 8.91953 16.14 8.32211 15.9009 7.82428C15.6618 7.32645 15.0644 7.11672 14.5665 7.35584C12.3809 8.40568 10.254 9.5583 8.19217 10.8074C7.58766 11.1736 7.18128 11.773 7.04761 12.4445C5.90771 12.0061 4.75283 11.5976 3.5839 11.2207C2.6868 10.9314 1.78143 10.6605 0.868237 10.4084C0.495011 10.3054 0.214792 9.99617 0.148898 9.61463C0.0830039 9.2331 0.243277 8.84781 0.560329 8.62557C4.94145 5.55466 9.64081 2.90632 14.5992 0.739897Z" fill="white"/>
<path d="M16.414 17.6307C19.6658 15.8933 23.0823 14.4244 26.6339 13.2536C26.8129 15.1401 26.9272 17.0452 26.9745 18.9668C26.9847 19.3791 26.7407 19.7554 26.3601 19.9143C22.5586 21.5014 18.9427 23.4449 15.5541 25.7031C15.2183 25.9269 14.7808 25.9269 14.445 25.7031C11.0564 23.4449 7.44049 21.5014 3.63897 19.9143C3.25839 19.7554 3.01439 19.3791 3.02455 18.9668C3.0719 17.0451 3.18619 15.1398 3.36521 13.2532C4.59321 13.658 5.80505 14.0984 6.99951 14.5732V16.2671C6.40171 16.6129 5.99951 17.2592 5.99951 17.9995C5.99951 18.6599 6.31962 19.2456 6.81314 19.6098C6.69379 20.1173 6.51714 20.6139 6.2832 21.0895C6.8868 21.3744 7.48523 21.6684 8.07831 21.9714C8.41609 21.2844 8.66101 20.5634 8.81304 19.8271C9.51217 19.5155 9.99951 18.8144 9.99951 17.9995C9.99951 17.2592 9.59731 16.6129 8.99951 16.2671V15.4074C10.5614 16.0898 12.0913 16.8319 13.5864 17.6307C14.4699 18.1028 15.5306 18.1028 16.414 17.6307Z" fill="white"/>
<path d="M4.94914 22.9492C5.50799 22.3904 5.95287 21.761 6.2832 21.0895C6.8868 21.3744 7.48523 21.6684 8.07831 21.9714C7.65357 22.8352 7.0817 23.6451 6.36336 24.3635C5.97283 24.754 5.33967 24.754 4.94914 24.3635C4.55862 23.9729 4.55862 23.3398 4.94914 22.9492Z" fill="white"/>
</svg>
